<svg xmlns="http://www.w3.org/2000/svg" viewBox="0 0 64 64" fill="none">
  <!-- Central brain -->
  <ellipse cx="32" cy="30" rx="16" ry="14" fill="url(#fg)"/>

  <!-- Branches -->
  <path d="M20 22 L10 12" stroke="#F59E0B" stroke-width="2.5" stroke-linecap="round"/>
  <path d="M18 28 L6 26" stroke="#EAB308" stroke-width="2" stroke-linecap="round"/>
  <path d="M44 22 L54 12" stroke="#3B82F6" stroke-width="2.5" stroke-linecap="round"/>
  <path d="M46 28 L58 26" stroke="#60A5FA" stroke-width="2" stroke-linecap="round"/>
  <path d="M20 38 L10 50" stroke="#10B981" stroke-width="2.5" stroke-linecap="round"/>
  <path d="M18 34 L6 38" stroke="#10B981" stroke-width="2" stroke-linecap="round"/>
  <path d="M44 38 L54 50" stroke="#14B8A6" stroke-width="2.5" stroke-linecap="round"/>
  <path d="M46 34 L58 38" stroke="#0D9488" stroke-width="2" stroke-linecap="round"/>
  <path d="M32 17 L32 6" stroke="#F97316" stroke-width="2.5" stroke-linecap="round"/>

  <!-- Endpoint dots -->
  <circle cx="10" cy="12" r="4" fill="#FEF3C7" stroke="#F59E0B" stroke-width="1"/>
  <circle cx="6" cy="26" r="3.5" fill="#FEF3C7" stroke="#EAB308" stroke-width="1"/>
  <circle cx="54" cy="12" r="4" fill="#EFF6FF" stroke="#3B82F6" stroke-width="1"/>
  <circle cx="58" cy="26" r="3.5" fill="#EFF6FF" stroke="#60A5FA" stroke-width="1"/>
  <circle cx="32" cy="5" r="3.5" fill="#FFF7ED" stroke="#F97316" stroke-width="1"/>
  <circle cx="10" cy="50" r="4" fill="#ECFDF5" stroke="#10B981" stroke-width="1"/>
  <circle cx="6" cy="38" r="3.5" fill="#ECFDF5" stroke="#10B981" stroke-width="1"/>
  <circle cx="54" cy="50" r="4" fill="#F0FDFA" stroke="#14B8A6" stroke-width="1"/>
  <circle cx="58" cy="38" r="3.5" fill="#F0FDFA" stroke="#0D9488" stroke-width="1"/>

  <!-- "3" text -->
  <text x="32" y="35" text-anchor="middle" font-family="system-ui, sans-serif" font-weight="800" font-size="16" fill="white">3</text>

  <defs>
    <linearGradient id="fg" x1="16" y1="16" x2="48" y2="44">
      <stop offset="0%" stop-color="#3B82F6"/>
      <stop offset="50%" stop-color="#0EA5E9"/>
      <stop offset="100%" stop-color="#10B981"/>
    </linearGradient>
  </defs>
</svg>
